<svg width="152" height="68" viewBox="0 0 152 68" fill="none" xmlns="http://www.w3.org/2000/svg">
<rect x="152" y="68" width="5" height="5" rx="2.5" transform="rotate(-180 152 68)" fill="#ED1CA6"/>
<rect x="131" y="68" width="5" height="5" rx="2.5" transform="rotate(-180 131 68)" fill="#ED1CA6"/>
<rect x="110" y="68" width="5" height="5" rx="2.5" transform="rotate(-180 110 68)" fill="#ED1CA6"/>
<rect x="89" y="68" width="5" height="5" rx="2.5" transform="rotate(-180 89 68)" fill="#ED1CA6"/>
<rect x="68" y="68" width="5" height="5" rx="2.5" transform="rotate(-180 68 68)" fill="#ED1CA6"/>
<rect x="47" y="68" width="5" height="5" rx="2.5" transform="rotate(-180 47 68)" fill="#ED1CA6"/>
<rect x="26" y="68" width="5" height="5" rx="2.5" transform="rotate(-180 26 68)" fill="#ED1CA6"/>
<rect x="5" y="68" width="5" height="5" rx="2.5" transform="rotate(-180 5 68)" fill="#ED1CA6"/>
<rect x="152" y="47" width="5" height="5" rx="2.5" transform="rotate(-180 152 47)" fill="#ED1CA6"/>
<rect x="131" y="47" width="5" height="5" rx="2.5" transform="rotate(-180 131 47)" fill="#ED1CA6"/>
<rect x="110" y="47" width="5" height="5" rx="2.5" transform="rotate(-180 110 47)" fill="#ED1CA6"/>
<rect x="89" y="47" width="5" height="5" rx="2.5" transform="rotate(-180 89 47)" fill="#ED1CA6"/>
<rect x="68" y="47" width="5" height="5" rx="2.5" transform="rotate(-180 68 47)" fill="#ED1CA6"/>
<rect x="47" y="47" width="5" height="5" rx="2.5" transform="rotate(-180 47 47)" fill="#ED1CA6"/>
<rect x="26" y="47" width="5" height="5" rx="2.5" transform="rotate(-180 26 47)" fill="#ED1CA6"/>
<rect x="5" y="47" width="5" height="5" rx="2.5" transform="rotate(-180 5 47)" fill="#ED1CA6"/>
<rect x="152" y="26" width="5" height="5" rx="2.5" transform="rotate(-180 152 26)" fill="#ED1CA6"/>
<rect x="131" y="26" width="5" height="5" rx="2.5" transform="rotate(-180 131 26)" fill="#ED1CA6"/>
<rect x="110" y="26" width="5" height="5" rx="2.5" transform="rotate(-180 110 26)" fill="#ED1CA6"/>
<rect x="89" y="26" width="5" height="5" rx="2.5" transform="rotate(-180 89 26)" fill="#ED1CA6"/>
<rect x="68" y="26" width="5" height="5" rx="2.5" transform="rotate(-180 68 26)" fill="#ED1CA6"/>
<rect x="47" y="26" width="5" height="5" rx="2.5" transform="rotate(-180 47 26)" fill="#ED1CA6"/>
<rect x="26" y="26" width="5" height="5" rx="2.5" transform="rotate(-180 26 26)" fill="#ED1CA6"/>
<rect x="5" y="26" width="5" height="5" rx="2.5" transform="rotate(-180 5 26)" fill="#ED1CA6"/>
<rect x="152" y="5" width="5" height="5" rx="2.5" transform="rotate(-180 152 5)" fill="#ED1CA6"/>
<rect x="131" y="5" width="5" height="5" rx="2.5" transform="rotate(-180 131 5)" fill="#ED1CA6"/>
<rect x="110" y="5" width="5" height="5" rx="2.5" transform="rotate(-180 110 5)" fill="#ED1CA6"/>
<rect x="89" y="5" width="5" height="5" rx="2.5" transform="rotate(-180 89 5)" fill="#ED1CA6"/>
<rect x="68" y="5" width="5" height="5" rx="2.5" transform="rotate(-180 68 5)" fill="#ED1CA6"/>
<rect x="47" y="5" width="5" height="5" rx="2.5" transform="rotate(-180 47 5)" fill="#ED1CA6"/>
<rect x="26" y="5" width="5" height="5" rx="2.5" transform="rotate(-180 26 5)" fill="#ED1CA6"/>
<rect x="5" y="5" width="5" height="5" rx="2.5" transform="rotate(-180 5 5)" fill="#ED1CA6"/>
</svg>
