<svg width="68" height="152" viewBox="0 0 68 152" fill="none" xmlns="http://www.w3.org/2000/svg">
<rect x="68" width="5" height="5" rx="2.5" transform="rotate(90 68 0)" fill="#7D00FF"/>
<rect x="68" y="21" width="5" height="5" rx="2.5" transform="rotate(90 68 21)" fill="#7D00FF"/>
<rect x="68" y="42" width="5" height="5" rx="2.5" transform="rotate(90 68 42)" fill="#7D00FF"/>
<rect x="68" y="63" width="5" height="5" rx="2.5" transform="rotate(90 68 63)" fill="#7D00FF"/>
<rect x="68" y="84" width="5" height="5" rx="2.5" transform="rotate(90 68 84)" fill="#7D00FF"/>
<rect x="68" y="105" width="5" height="5" rx="2.5" transform="rotate(90 68 105)" fill="#7D00FF"/>
<rect x="68" y="126" width="5" height="5" rx="2.5" transform="rotate(90 68 126)" fill="#7D00FF"/>
<rect x="68" y="147" width="5" height="5" rx="2.5" transform="rotate(90 68 147)" fill="#7D00FF"/>
<rect x="47" width="5" height="5" rx="2.5" transform="rotate(90 47 0)" fill="#7D00FF"/>
<rect x="47" y="21" width="5" height="5" rx="2.5" transform="rotate(90 47 21)" fill="#7D00FF"/>
<rect x="47" y="42" width="5" height="5" rx="2.5" transform="rotate(90 47 42)" fill="#7D00FF"/>
<rect x="47" y="63" width="5" height="5" rx="2.5" transform="rotate(90 47 63)" fill="#7D00FF"/>
<rect x="47" y="84" width="5" height="5" rx="2.5" transform="rotate(90 47 84)" fill="#7D00FF"/>
<rect x="47" y="105" width="5" height="5" rx="2.5" transform="rotate(90 47 105)" fill="#7D00FF"/>
<rect x="47" y="126" width="5" height="5" rx="2.5" transform="rotate(90 47 126)" fill="#7D00FF"/>
<rect x="47" y="147" width="5" height="5" rx="2.5" transform="rotate(90 47 147)" fill="#7D00FF"/>
<rect x="26" width="5" height="5" rx="2.5" transform="rotate(90 26 0)" fill="#7D00FF"/>
<rect x="26" y="21" width="5" height="5" rx="2.5" transform="rotate(90 26 21)" fill="#7D00FF"/>
<rect x="26" y="42" width="5" height="5" rx="2.5" transform="rotate(90 26 42)" fill="#7D00FF"/>
<rect x="26" y="63" width="5" height="5" rx="2.5" transform="rotate(90 26 63)" fill="#7D00FF"/>
<rect x="26" y="84" width="5" height="5" rx="2.5" transform="rotate(90 26 84)" fill="#7D00FF"/>
<rect x="26" y="105" width="5" height="5" rx="2.5" transform="rotate(90 26 105)" fill="#7D00FF"/>
<rect x="26" y="126" width="5" height="5" rx="2.5" transform="rotate(90 26 126)" fill="#7D00FF"/>
<rect x="26" y="147" width="5" height="5" rx="2.5" transform="rotate(90 26 147)" fill="#7D00FF"/>
<rect x="5" width="5" height="5" rx="2.5" transform="rotate(90 5 0)" fill="#7D00FF"/>
<rect x="5" y="21" width="5" height="5" rx="2.5" transform="rotate(90 5 21)" fill="#7D00FF"/>
<rect x="5" y="42" width="5" height="5" rx="2.5" transform="rotate(90 5 42)" fill="#7D00FF"/>
<rect x="5" y="63" width="5" height="5" rx="2.5" transform="rotate(90 5 63)" fill="#7D00FF"/>
<rect x="5" y="84" width="5" height="5" rx="2.5" transform="rotate(90 5 84)" fill="#7D00FF"/>
<rect x="5" y="105" width="5" height="5" rx="2.5" transform="rotate(90 5 105)" fill="#7D00FF"/>
<rect x="5" y="126" width="5" height="5" rx="2.5" transform="rotate(90 5 126)" fill="#7D00FF"/>
<rect x="5" y="147" width="5" height="5" rx="2.5" transform="rotate(90 5 147)" fill="#7D00FF"/>
</svg>
